<?xml version="1.0" encoding="UTF-8" standalone="no"?>
<svg
   xmlns:dc="http://purl.org/dc/elements/1.1/"
   xmlns:cc="http://creativecommons.org/ns#"
   xmlns:rdf="http://www.w3.org/1999/02/22-rdf-syntax-ns#"
   xmlns:svg="http://www.w3.org/2000/svg"
   xmlns="http://www.w3.org/2000/svg"
   xmlns:sodipodi="http://sodipodi.sourceforge.net/DTD/sodipodi-0.dtd"
   xmlns:inkscape="http://www.inkscape.org/namespaces/inkscape"
   version="1.0"
   width="582.000000pt"
   height="582.000000pt"
   viewBox="0 0 582.000000 582.000000"
   preserveAspectRatio="xMidYMid meet"
   id="svg2"
   inkscape:version="0.91 r13725"
   sodipodi:docname="favicon.svg">
  <defs
     id="defs18" />
  <sodipodi:namedview
     pagecolor="#ffffff"
     bordercolor="#666666"
     borderopacity="1"
     objecttolerance="10"
     gridtolerance="10"
     guidetolerance="10"
     inkscape:pageopacity="0"
     inkscape:pageshadow="2"
     inkscape:window-width="2493"
     inkscape:window-height="1250"
     id="namedview16"
     showgrid="false"
     inkscape:zoom="0.45876894"
     inkscape:cx="801.21443"
     inkscape:cy="526.2685"
     inkscape:window-x="-1"
     inkscape:window-y="0"
     inkscape:window-maximized="0"
     inkscape:current-layer="layer1" />
  <metadata
     id="metadata4">
Created by potrace 1.11, written by Peter Selinger 2001-2013
<rdf:RDF>
  <cc:Work
     rdf:about="">
    <dc:format>image/svg+xml</dc:format>
    <dc:type
       rdf:resource="http://purl.org/dc/dcmitype/StillImage" />
    <dc:title></dc:title>
  </cc:Work>
</rdf:RDF>
</metadata>
  <g
     inkscape:groupmode="layer"
     id="layer1"
     inkscape:label="Background"
     style="display:inline"
     sodipodi:insensitive="true">
    <rect
       style="fill:#ffffff;fill-opacity:1;stroke:none;stroke-opacity:1"
       id="rect4149"
       width="622.53558"
       height="619.04797"
       x="-10.462783"
       y="-5.659667" />
  </g>
  <g
     inkscape:groupmode="layer"
     id="layer2"
     inkscape:label="Text">
    <g
       style=""
       transform="matrix(0.1,0,0,-0.1,0,582)"
       fill="#000000"
       stroke="none"
       id="g6">
      <path
         d="M4572 4590 c-178 -19 -349 -82 -460 -170 -107 -85 -204 -254 -252 -435 -48 -186 -51 -258 -48 -1102 3 -709 5 -797 21 -873 92 -438 283 -649 648 -714 130 -23 253 -29 380 -17 242 23 379 78 504 205 66 66 90 99 128 178 87 177 117 346 117 661 l0 197 -284 0 -283 0 -6 -257 c-7 -346 -21 -409 -106 -486 -52 -47 -104 -60 -217 -55 -185 8 -261 91 -294 323 -13 97 -13 1699 0 1802 15 105 26 139 67 200 27 40 49 59 92 80 50 25 67 28 156 28 120 0 160 -13 214 -66 71 -71 90 -180 91 -511 l0 -188 286 0 286 0 -5 253 c-5 278 -18 366 -75 505 -124 302 -340 432 -742 446 -74 3 -172 1 -218 -4z"
         id="path8" />
      <path
         d="M3105 4548 c-3 -7 -214 -735 -469 -1618 l-463 -1605 180 -3 c99 -1 181 -1 183 0 3 4 934 3225 934 3233 0 3 -81 5 -180 5 -135 0 -182 -3 -185 -12z"
         id="path10" />
      <path
         d="M480 1595 l0 -275 265 0 265 0 0 275 0 275 -265 0 -265 0 0 -275z"
         id="path12" />
      <path
         d="M1350 1595 l0 -275 265 0 265 0 0 275 0 275 -265 0 -265 0 0 -275z"
         id="path14" />
    </g>
  </g>
</svg>
