<?xml version="1.0" standalone="no"?>
<!DOCTYPE svg PUBLIC "-//W3C//DTD SVG 20010904//EN"
 "http://www.w3.org/TR/2001/REC-SVG-20010904/DTD/svg10.dtd">
<svg version="1.0" xmlns="http://www.w3.org/2000/svg"
 width="582.000000pt" height="582.000000pt" viewBox="0 0 582.000000 582.000000"
 preserveAspectRatio="xMidYMid meet">
<metadata>
Created by potrace 1.11, written by Peter Selinger 2001-2013
</metadata>
<g transform="translate(0.000000,582.000000) scale(0.100000,-0.100000)"
fill="#000000" stroke="none">
<path d="M4572 4590 c-178 -19 -349 -82 -460 -170 -107 -85 -204 -254 -252
-435 -48 -186 -51 -258 -48 -1102 3 -709 5 -797 21 -873 92 -438 283 -649 648
-714 130 -23 253 -29 380 -17 242 23 379 78 504 205 66 66 90 99 128 178 87
177 117 346 117 661 l0 197 -284 0 -283 0 -6 -257 c-7 -346 -21 -409 -106
-486 -52 -47 -104 -60 -217 -55 -185 8 -261 91 -294 323 -13 97 -13 1699 0
1802 15 105 26 139 67 200 27 40 49 59 92 80 50 25 67 28 156 28 120 0 160
-13 214 -66 71 -71 90 -180 91 -511 l0 -188 286 0 286 0 -5 253 c-5 278 -18
366 -75 505 -124 302 -340 432 -742 446 -74 3 -172 1 -218 -4z"/>
<path d="M3105 4548 c-3 -7 -214 -735 -469 -1618 l-463 -1605 180 -3 c99 -1
181 -1 183 0 3 4 934 3225 934 3233 0 3 -81 5 -180 5 -135 0 -182 -3 -185 -12z"/>
<path d="M480 1595 l0 -275 265 0 265 0 0 275 0 275 -265 0 -265 0 0 -275z"/>
<path d="M1350 1595 l0 -275 265 0 265 0 0 275 0 275 -265 0 -265 0 0 -275z"/>
</g>
</svg>
